<svg xmlns="http://www.w3.org/2000/svg" viewBox="0 0 511.7 511.7"><defs><style>.a{fill:#fff;}</style></defs><path class="a" d="M127.45,0h190.9a16,16,0,0,1,12.8,6.4l119.9,129.7a16,16,0,0,1,4.2,10.8l.1,293.7a70.69,70.69,0,0,1-20.9,50.1l-.1.1a70.86,70.86,0,0,1-50.1,20.9H127.45a71.36,71.36,0,0,1-71.1-71.1V71.1A71.36,71.36,0,0,1,127.45,0Zm45.8,254a16,16,0,1,1,0-31.9h165.2a16,16,0,1,1,0,31.9Zm0,79.4a16,16,0,0,1,0-32h156.5a16,16,0,0,1,0,32Zm0,79.4a16,16,0,1,1,0-32H306a16,16,0,0,1,.1,32ZM327.45,49.1v54.2c1.1,13.6,5.8,24.2,14,31.2,8.6,7.4,21.6,11.5,39,11.8l36.9-.1C417.25,146.4,327.45,49.1,327.45,49.1Zm96,129.1-43.3-.1c-25.2-.4-45.1-7.2-59.4-19.4-14.9-12.8-23.3-30.8-25.1-53.1l-.1-2.2V31.9H127.45a39.26,39.26,0,0,0-39.2,39.2V440.6a38.67,38.67,0,0,0,11.5,27.6,39.08,39.08,0,0,0,27.7,11.5h256.8a38.67,38.67,0,0,0,27.6-11.5,39.08,39.08,0,0,0,11.5-27.7V178.2Z"/></svg>