<?xml version="1.0" standalone="no"?>
<!DOCTYPE svg PUBLIC "-//W3C//DTD SVG 20010904//EN"
 "http://www.w3.org/TR/2001/REC-SVG-20010904/DTD/svg10.dtd">
<svg version="1.0" xmlns="http://www.w3.org/2000/svg"
 width="1280.000000pt" height="1280.000000pt" viewBox="0 0 1280.000000 1280.000000"
 preserveAspectRatio="xMidYMid meet">
<metadata>
Created by potrace 1.15, written by Peter Selinger 2001-2017
</metadata>
<g transform="translate(0.000000,1280.000000) scale(0.100000,-0.100000)"
fill="#FFFFFF" stroke="none">
<path d="M6095 12794 c-27 -2 -115 -8 -195 -14 -1261 -93 -2504 -584 -3500
-1384 -454 -365 -875 -810 -1215 -1287 -1290 -1808 -1545 -4169 -673 -6221 75
-176 232 -491 328 -658 755 -1314 1927 -2308 3343 -2834 1416 -526 3018 -526
4434 0 231 86 350 137 588 253 851 414 1598 1013 2200 1764 1543 1923 1831
4598 735 6817 -777 1573 -2162 2758 -3835 3281 -428 134 -858 219 -1340 265
-150 14 -756 27 -870 18z m1235 -2454 c540 -31 1022 -153 1496 -380 274 -131
535 -294 774 -486 158 -126 449 -413 572 -564 707 -868 1012 -1947 862 -3057
-210 -1558 -1369 -2864 -2899 -3268 -891 -235 -1840 -148 -2673 246 -67 31
-103 53 -99 61 2 7 19 57 36 111 63 198 64 207 68 1027 3 484 1 791 -6 875
-17 195 -66 378 -145 533 -81 160 -257 370 -393 470 -35 25 -63 49 -63 52 0 3
16 52 35 109 360 1057 74 2314 -665 2924 l-45 37 175 172 c186 184 321 298
513 431 604 421 1313 666 2042 706 206 12 224 12 415 1z m-3772 -1466 c171
-35 346 -131 493 -271 287 -274 476 -677 556 -1183 26 -165 26 -626 0 -790
-27 -170 -95 -440 -123 -491 -2 -4 -33 2 -68 11 -137 39 -222 41 -1086 38
-754 -4 -842 -6 -905 -22 -128 -32 -130 -32 -143 0 -43 107 -99 359 -123 549
-18 145 -16 502 5 655 107 795 523 1390 1051 1503 93 20 248 21 343 1z m497
-3104 c253 -29 463 -124 639 -291 136 -129 226 -263 286 -428 17 -45 30 -86
30 -91 0 -6 -330 -10 -915 -10 l-915 0 0 -105 0 -105 935 0 935 0 0 -260 0
-260 -935 0 -935 0 0 -105 0 -105 935 0 935 0 -2 -257 -3 -258 -932 -3 -933
-2 0 -100 0 -100 908 -1 c499 -1 911 -1 916 0 14 3 -1 -55 -39 -147 -119 -292
-381 -537 -675 -631 -168 -54 -163 -54 -814 -58 -659 -5 -781 1 -934 42 -411
110 -723 453 -797 875 -22 125 -22 1367 0 1493 83 479 483 853 965 906 110 12
1238 13 1345 1z"/>
<path d="M5741 7293 c-33 -75 -60 -138 -58 -139 1 -2 160 -73 352 -159 192
-86 351 -158 353 -160 2 -2 -155 -83 -349 -181 -195 -97 -356 -178 -359 -181
-2 -2 27 -66 65 -143 l70 -138 530 266 530 267 24 48 c18 37 22 56 17 90 -13
86 -15 87 -575 337 -283 127 -520 230 -526 230 -7 0 -40 -61 -74 -137z"/>
<path d="M8338 7315 c-157 -43 -289 -165 -348 -323 -28 -71 -37 -205 -21 -285
39 -185 185 -337 375 -392 81 -24 238 -16 315 15 208 82 333 265 333 485 0
232 -137 420 -359 494 -73 24 -218 27 -295 6z"/>
<path d="M6005 5064 c-66 -42 -124 -80 -129 -84 -20 -20 198 -277 337 -398
156 -137 263 -209 423 -290 574 -288 1223 -203 1749 228 129 106 344 337 397
428 l18 30 -131 82 -131 82 -15 -22 c-52 -74 -146 -180 -231 -261 -225 -214
-468 -347 -737 -405 -109 -23 -321 -23 -438 0 -217 42 -441 152 -639 313 -86
70 -262 254 -308 321 -19 28 -37 51 -40 51 -3 0 -59 -34 -125 -75z"/>
</g>
</svg>
